<svg width="48" height="49" viewBox="0 0 48 49" fill="none" xmlns="http://www.w3.org/2000/svg">
<path d="M41.7796 21.1066C42.0324 19.4108 41.9495 17.6747 41.5309 16.0054C40.978 13.8002 39.8392 11.7118 38.1147 9.9873C36.3902 8.26281 34.3018 7.12409 32.0967 6.57115C30.4274 6.15257 28.6912 6.06967 26.9954 6.32245" stroke="white" stroke-width="4" stroke-linecap="round" stroke-linejoin="round"/>
<path d="M34.1891 20.3035C34.4599 18.4869 33.8961 16.5699 32.4977 15.1715C31.0992 13.7731 29.1823 13.2092 27.3657 13.48" stroke="white" stroke-width="4" stroke-linecap="round" stroke-linejoin="round"/>
<path d="M14.376 9.29423C15.1026 9.29423 15.772 9.68825 16.1246 10.3235L18.5711 14.7303C18.8914 15.3073 18.9064 16.0052 18.6113 16.5955L16.2545 21.3091C16.2545 21.3091 16.9374 24.8206 19.7959 27.679C22.6543 30.5374 26.154 31.2086 26.154 31.2086L30.8669 28.8522C31.4576 28.5568 32.156 28.5721 32.7332 28.893L37.1525 31.35C37.7871 31.7028 38.1807 32.3719 38.1807 33.098L38.1807 38.1715C38.1807 40.7552 35.7808 42.6213 33.3327 41.7952C28.3048 40.0987 20.5001 36.8685 15.5532 31.9216C10.6064 26.9748 7.37619 19.1701 5.67965 14.1422C4.85363 11.6941 6.71972 9.29423 9.30336 9.29423L14.376 9.29423Z" fill="white" stroke="white" stroke-width="4" stroke-linejoin="round"/>
</svg>
